PathFileType	4	(x/y/z)	S02_PSF_T05
DataRate	CameraRate	NumFrames	NumMarkers	Units	OrigDataRate	OrigDataStartFrame	OrigNumFrames
240	240	8	51	mm	240	52	410
Frame#	Time	Sternum			R.Acromium			L.Acromium			Top.Head			R.ASIS			L.ASIS			R.PSIS			L.PSIS			R.Great.Tro			L.Great.Tro			R.Iliac.Crest			L.Iliac.Crest			V.Sacral			R.Thigh.Upper.Post			R.Thigh.Lower.Ant			R.Thigh.Lower.Post			R.Thigh.Upper.Ant			R.Knee.Lat			R.Knee.Med			R.Shank.Upper.Post			R.Shank.Lower.Ant			R.Shank.Lower.Post			R.Shank.Upper.Ant			R.Ankle.Lat			R.Ankle.Med			R.Heel.Upper			R.Heel.Med			R.Heel.Lat			R.Toe.Lat			R.Toe.Med			R.Toe.Tip			L.Thigh.Upper.Post			L.Thigh.Lower.Ant			L.Thigh.Lower.Post			L.Thigh.Upper.Ant			L.Knee.Lat			L.Knee.Med			L.Shank.Upper.Post			L.Shank.Lower.Ant			L.Shank.Lower.Post			L.Shank.Upper.Ant			L.Ankle.Lat			L.Ankle.Med			L.Heel.Upper			L.Heel.Med			L.Heel.Lat			L.Toe.Lat			L.Toe.Med			L.Toe.Tip			Cervical.Spine			Back			
		X1	Y1	Z1	X2	Y2	Z2	X3	Y3	Z3	X4	Y4	Z4	X5	Y5	Z5	X6	Y6	Z6	X7	Y7	Z7	X8	Y8	Z8	X9	Y9	Z9	X10	Y10	Z10	X11	Y11	Z11	X12	Y12	Z12	X13	Y13	Z13	X14	Y14	Z14	X15	Y15	Z15	X16	Y16	Z16	X17	Y17	Z17	X18	Y18	Z18	X19	Y19	Z19	X20	Y20	Z20	X21	Y21	Z21	X22	Y22	Z22	X23	Y23	Z23	X24	Y24	Z24	X25	Y25	Z25	X26	Y26	Z26	X27	Y27	Z27	X28	Y28	Z28	X29	Y29	Z29	X30	Y30	Z30	X31	Y31	Z31	X32	Y32	Z32	X33	Y33	Z33	X34	Y34	Z34	X35	Y35	Z35	X36	Y36	Z36	X37	Y37	Z37	X38	Y38	Z38	X39	Y39	Z39	X40	Y40	Z40	X41	Y41	Z41	X42	Y42	Z42	X43	Y43	Z43	X44	Y44	Z44	X45	Y45	Z45	X46	Y46	Z46	X47	Y47	Z47	X48	Y48	Z48	X49	Y49	Z49	X50	Y50	Z50	X51	Y51	Z51	

52	0.2125	-1209.5	1074.1	352.11	-1312.4	1314	484.61	-1323.1	1308.1	194.69	-1282.1	1598.4	324.17	NaN	NaN	NaN	-1225.5	906.88	260.01	NaN	NaN	NaN	NaN	NaN	NaN	-1338.7	776.33	553.64	-1321.7	812.13	160.91	-1369.1	949.52	523.38	-1342.7	954.02	184.52	-1481.5	902.05	352.02	-1353.6	579.66	546.11	-1295.5	490.43	526.77	-1366.3	489.13	531.56	-1277.7	578.88	536.58	-1373.8	413.39	526.54	-1341.8	382.53	386.13	-1560.1	336.36	496.75	-1588.6	231.98	483.35	NaN	NaN	NaN	-1527.3	270.88	501.62	-1680.8	213.98	473.1	-1647.9	215.78	391.19	-1710.6	263.34	420.06	-1727	244.23	385.47	-1744	244.8	448.19	-1687.3	90.726	476.46	-1665.7	77.5	370.17	-1626.1	47.601	423.15	-1278.2	581.89	193.28	-1179.1	535.42	208.31	-1248.7	500.07	222.6	-1218	618.48	180.81	-1169.2	454.38	225.16	-1173.3	461.11	362.22	-1236.7	278.72	229.46	-1165.1	196.19	253.24	-1238.4	206.4	249.85	-1172.6	269.78	233.38	-1210.2	97.046	269.21	-1200	94.598	351.06	-1269.3	65.695	303.37	-1261.6	39.698	336.94	-1262.1	37.857	275.01	-1095.5	34.695	247.98	-1076.8	44.236	358.29	-1015.8	61.056	311.83	-1403.3	1377.1	343.46	-1475.3	1124.3	365.05
53	0.21667	-1203.7	1074.7	351.91	-1307.1	1314.6	484.2	-1317.1	1308.6	194.24	-1276	1599	323.64	NaN	NaN	NaN	-1219.8	907.63	259.49	NaN	NaN	NaN	NaN	NaN	NaN	-1332.3	776.45	553.28	-1317.1	812.86	160.54	-1363.7	949.81	523.06	-1337.5	954.87	184.38	-1476	902.32	351.75	-1344.6	579.79	546.65	-1286	491.22	527.87	-1356.8	489.12	532.41	-1269.3	579.85	537.47	-1362.5	413.29	527.5	-1329.8	382.14	387.11	-1549.2	338.16	497.61	-1578.9	233.92	484.05	NaN	NaN	NaN	-1516.8	272.28	502.41	-1671	217.05	473.78	-1637.6	218.19	391.85	-1698.8	267.59	420.63	-1715.9	249.11	385.99	-1733.3	249.96	448.67	-1681.1	93.941	477.01	-1659.4	79.752	370.92	-1621.2	47.464	424.15	-1274.3	582.35	192.84	-1175.5	535.33	207.77	-1245.3	500.34	222.14	-1214	618.58	180.33	-1166.2	454.02	224.6	-1170	460.89	361.66	-1234.8	278.94	228.99	-1163.8	195.89	253.06	-1237	206.69	249.29	-1170.8	269.47	233.12	-1210	97.091	269.18	-1199.9	94.666	350.98	-1269.3	65.718	303.33	-1261.5	39.741	336.92	-1262.1	37.877	274.98	-1095.5	34.737	247.95	-1076.8	44.25	358.41	-1015.7	60.948	311.85	-1397.6	1377.7	342.8	-1469.7	1124.9	364.35
54	0.22083	-1198	1075.3	351.74	-1301.8	1315.2	483.84	-1311	1309.1	193.83	-1270	1599.6	323.13	NaN	NaN	NaN	-1214.2	908.36	258.97	NaN	NaN	NaN	NaN	NaN	NaN	-1326.1	776.66	552.94	-1312.4	813.57	160.18	-1358.4	950.11	522.74	-1332.3	955.71	184.25	-1470.6	902.61	351.48	-1335.7	580.04	547.15	-1276.5	492.16	528.91	-1347.3	489.23	533.2	-1260.9	580.95	538.34	-1351.2	413.3	528.41	-1318.2	382.05	387.96	-1538.2	339.92	498.41	-1569	235.82	484.71	NaN	NaN	NaN	-1506.2	273.67	503.16	-1661	219.97	474.4	-1627.2	220.48	392.44	-1687	271.55	421.09	-1704.6	253.62	386.4	-1722.4	254.76	449.03	-1674.3	97.078	477.57	-1652.6	81.919	371.7	-1615.7	47.462	425.2	-1270.6	582.82	192.42	-1172	535.21	207.26	-1242	500.62	221.69	-1210	618.66	179.88	-1163.4	453.64	224.09	-1167.1	460.6	361.12	-1232.9	279.14	228.56	-1162.7	195.6	252.88	-1235.5	206.98	248.73	-1169.2	269.16	232.87	-1209.8	97.135	269.14	-1199.8	94.731	350.91	-1269.3	65.736	303.3	-1261.5	39.779	336.9	-1262.1	37.894	274.96	-1095.5	34.78	247.93	-1076.8	44.271	358.51	-1015.7	60.865	311.86	-1392	1378.3	342.17	-1464.2	1125.6	363.66
55	0.225	-1192.3	1076	351.61	-1296.6	1315.9	483.52	-1305	1309.7	193.44	-1264.1	1600.2	322.65	NaN	NaN	NaN	-1208.6	909.06	258.45	NaN	NaN	NaN	NaN	NaN	NaN	-1319.9	776.97	552.61	-1307.8	814.28	159.85	-1353.1	950.41	522.43	-1327.3	956.55	184.12	-1465.2	902.94	351.23	-1326.8	580.38	547.61	-1266.9	493.23	529.88	-1337.9	489.45	533.93	-1252.6	582.17	539.17	-1339.8	413.46	529.28	-1306.7	382.27	388.68	-1527.2	341.65	499.15	-1558.9	237.66	485.31	NaN	NaN	NaN	-1495.5	275.06	503.88	-1650.8	222.76	474.95	-1616.6	222.65	392.98	-1675.1	275.21	421.44	-1693.1	257.74	386.7	-1711.5	259.18	449.29	-1667.1	100.11	478.13	-1645.2	83.986	372.5	-1609.6	47.603	426.32	-1266.9	583.3	192.03	-1168.6	535.08	206.78	-1238.9	500.89	221.25	-1206.1	618.74	179.47	-1160.6	453.25	223.62	-1164.4	460.25	360.61	-1231.2	279.32	228.17	-1161.6	195.31	252.7	-1234.2	207.28	248.17	-1167.6	268.85	232.63	-1209.7	97.179	269.11	-1199.7	94.796	350.84	-1269.2	65.751	303.28	-1261.5	39.814	336.87	-1262.1	37.91	274.93	-1095.5	34.821	247.91	-1076.7	44.293	358.59	-1015.7	60.799	311.87	-1386.4	1378.9	341.57	-1458.6	1126.2	362.96
56	0.22917	-1186.6	1076.6	351.53	-1291.3	1316.6	483.23	-1299.1	1310.3	193.07	-1258.1	1600.9	322.2	NaN	NaN	NaN	-1203.1	909.74	257.95	NaN	NaN	NaN	NaN	NaN	NaN	-1313.9	777.37	552.3	-1303.3	814.98	159.53	-1347.8	950.73	522.13	-1322.3	957.38	183.99	-1459.9	903.29	350.98	-1318	580.81	548.04	-1257.4	494.44	530.79	-1328.4	489.8	534.6	-1244.3	583.5	539.96	-1328.3	413.76	530.1	-1295.5	382.78	389.28	-1516.1	343.34	499.82	-1548.6	239.44	485.86	NaN	NaN	NaN	-1484.7	276.45	504.57	-1640.4	225.39	475.43	-1605.9	224.7	393.45	-1663.3	278.56	421.67	-1681.6	261.46	386.9	-1700.4	263.2	449.46	-1659.3	103.02	478.69	-1637.2	85.937	373.33	-1602.8	47.89	427.48	-1263.4	583.78	191.65	-1165.3	534.93	206.34	-1235.9	501.18	220.81	-1202.3	618.82	179.1	-1158	452.87	223.2	-1162	459.87	360.15	-1229.5	279.48	227.82	-1160.6	195.02	252.54	-1232.9	207.58	247.61	-1166.2	268.55	232.42	-1209.6	97.225	269.08	-1199.6	94.858	350.78	-1269.2	65.765	303.26	-1261.4	39.847	336.86	-1262.1	37.928	274.91	-1095.5	34.858	247.89	-1076.7	44.314	358.66	-1015.6	60.746	311.87	-1380.8	1379.6	340.99	-1453.1	1126.9	362.27
57	0.23333	-1181	1077.3	351.48	-1286.2	1317.3	482.98	-1293.2	1310.9	192.74	-1252.2	1601.5	321.77	NaN	NaN	NaN	-1197.7	910.4	257.46	NaN	NaN	NaN	NaN	NaN	NaN	-1307.9	777.87	551.99	-1298.7	815.67	159.25	-1342.6	951.07	521.83	-1317.3	958.2	183.87	-1454.7	903.69	350.74	-1309.2	581.34	548.44	-1247.8	495.78	531.63	-1319	490.26	535.21	-1236.1	584.94	540.71	-1316.9	414.21	530.87	-1284.6	383.58	389.78	-1505	344.99	500.43	-1538	241.17	486.37	NaN	NaN	NaN	-1473.8	277.84	505.21	-1629.9	227.87	475.84	-1595	226.63	393.87	-1651.6	281.59	421.81	-1670.1	264.77	387.01	-1689.3	266.81	449.53	-1650.9	105.77	479.27	-1628.7	87.76	374.17	-1595.3	48.318	428.69	-1259.9	584.27	191.29	-1162.1	534.77	205.95	-1233	501.46	220.39	-1198.6	618.89	178.76	-1155.5	452.49	222.83	-1159.8	459.47	359.74	-1228	279.63	227.52	-1159.7	194.73	252.38	-1231.6	207.89	247.06	-1164.9	268.26	232.22	-1209.5	97.274	269.06	-1199.5	94.918	350.73	-1269.2	65.78	303.25	-1261.4	39.879	336.84	-1262	37.948	274.9	-1095.5	34.892	247.88	-1076.7	44.331	358.72	-1015.6	60.701	311.88	-1375.2	1380.3	340.44	-1447.6	1127.6	361.59
58	0.2375	-1175.5	1078	351.47	-1281	1318	482.76	-1287.3	1311.5	192.43	-1246.4	1602.2	321.38	NaN	NaN	NaN	-1192.3	911.04	256.97	NaN	NaN	NaN	NaN	NaN	NaN	-1302	778.47	551.69	-1294.2	816.37	158.99	-1337.4	951.44	521.55	-1312.4	959.02	183.74	-1449.4	904.14	350.51	-1300.4	581.97	548.79	-1238.3	497.25	532.41	-1309.6	490.83	535.76	-1227.8	586.5	541.41	-1305.4	414.82	531.6	-1273.8	384.63	390.19	-1493.8	346.6	500.96	-1527.4	242.84	486.83	NaN	NaN	NaN	-1462.9	279.24	505.82	-1619.2	230.18	476.19	-1584	228.44	394.23	-1639.9	284.29	421.85	-1658.5	267.65	387.02	-1678.2	269.99	449.53	-1642	108.34	479.85	-1619.5	89.443	375.04	-1587.2	48.879	429.94	-1256.5	584.77	190.96	-1159	534.61	205.6	-1230.2	501.76	219.98	-1195	618.97	178.47	-1153	452.12	222.52	-1157.9	459.05	359.38	-1226.6	279.77	227.26	-1158.9	194.46	252.24	-1230.4	208.21	246.52	-1163.6	267.98	232.05	-1209.4	97.326	269.04	-1199.4	94.976	350.69	-1269.2	65.796	303.24	-1261.4	39.912	336.83	-1262	37.973	274.89	-1095.5	34.922	247.87	-1076.7	44.342	358.76	-1015.6	60.661	311.88	-1369.7	1381	339.93	-1442.2	1128.4	360.91
59	0.24167	-1169.9	1078.7	351.5	-1275.9	1318.8	482.58	-1281.4	1312.2	192.14	-1240.6	1603	321	NaN	NaN	NaN	-1186.9	911.65	256.5	NaN	NaN	NaN	NaN	NaN	NaN	-1296.3	779.15	551.4	-1289.6	817.06	158.75	-1332.2	951.85	521.27	-1307.5	959.83	183.61	-1444.2	904.64	350.28	-1291.6	582.68	549.11	-1228.8	498.83	533.13	-1300.2	491.51	536.25	-1219.6	588.16	542.06	-1294	415.58	532.28	-1263.2	385.93	390.53	-1482.6	348.17	501.42	-1516.5	244.44	487.24	NaN	NaN	NaN	-1452	280.63	506.37	-1608.4	232.31	476.47	-1572.9	230.13	394.53	-1628.4	286.67	421.81	-1647	270.12	386.96	-1667.2	272.74	449.45	-1632.6	110.71	480.45	-1609.8	90.976	375.93	-1578.2	49.557	431.21	-1253.2	585.28	190.65	-1156	534.45	205.29	-1227.5	502.07	219.58	-1191.4	619.06	178.22	-1150.7	451.76	222.27	-1156.2	458.63	359.06	-1225.2	279.9	227.05	-1158.1	194.2	252.11	-1229.2	208.53	246	-1162.5	267.71	231.9	-1209.3	97.383	269.03	-1199.3	95.032	350.66	-1269.2	65.817	303.25	-1261.3	39.947	336.82	-1262	38.004	274.88	-1095.5	34.948	247.87	-1076.7	44.346	358.8	-1015.5	60.624	311.89	-1364.2	1381.8	339.44	-1436.8	1129.1	360.24
